<svg id="Layer_1" data-name="Layer 1" xmlns="http://www.w3.org/2000/svg" width="187.21" height="30" viewBox="0 0 187.21 30">
  <defs>
    <style>
      .cls-1 {
        fill: #fff;
      }
    </style>
  </defs>
  <title>cas_large_full</title>
  <g>
    <g>
      <g>
        <path class="cls-1" d="M37.78,6.35h3.46l8,10.49V6.35h3.7v17H49.73L41.48,12.55V23.39h-3.7v-17Z"/>
        <path class="cls-1" d="M61.34,16.67L54.79,6.35h4.38l4.06,6.84,4.14-6.84h4.26L65.09,16.6v6.79H61.34V16.67Z"/>
        <path class="cls-1" d="M73.24,16.08V6.35H77V16c0,2.77,1.39,4.21,3.67,4.21s3.68-1.39,3.68-4.09V6.35h3.75V16c0,5.16-2.89,7.69-7.47,7.69S73.24,21.1,73.24,16.08Z"/>
      </g>
      <path class="cls-1" d="M30,30H0V0H30V30h0ZM14,26.49a0.32,0.32,0,0,0,.59,0l1-8.31H13.05L14,26.49h0Zm2.53-8.91V16.32H12.16v1.26h4.33Zm-1.25-1.87c5.49,0.2,5.88-4.8,5.9-6.68,0-.11-0.05-0.12-0.08,0a5.25,5.25,0,0,1-2.86,2.63,5.17,5.17,0,0,0-3,4A0,0,0,0,0,15.24,15.71Zm-0.6-.36c0.87-4.16,4.26-4.27,4.56-5.06,0.47-1.23-.39-3.42-0.61-3.68a0,0,0,0,0-.06,0A7.4,7.4,0,0,1,16.78,9c-0.77.62-3.71,2.8-2.21,6.32A0,0,0,0,0,14.64,15.35Zm-0.6.17c-1.84-3.93,1.84-6.46,2.44-7a0.26,0.26,0,0,0,.06-0.24,9.25,9.25,0,0,0-.94-3.52s-0.06,0-.07,0a11.93,11.93,0,0,1-2.32,3.43c-2.84,3.37-2.19,5.43.77,7.37C14,15.58,14.06,15.56,14,15.51Zm-0.82.14c-3.07-1.84-2.77-4.46-1.49-6.38a0.3,0.3,0,0,0,0-.19A7.36,7.36,0,0,0,11,7.15c-0.06-.08-0.1-0.07-0.1,0a10.56,10.56,0,0,1-1.53,3.35c-1,1.61-1,5.1,3.84,5.24C13.25,15.72,13.26,15.67,13.22,15.65Z"/>
    </g>
    <g>
      <g>
        <path class="cls-1" d="M104.08,10v0a3.56,3.56,0,0,1,3.65-3.62,3.61,3.61,0,0,1,2.76,1.08l-1,1.13a2.59,2.59,0,0,0-1.79-.79,2.07,2.07,0,0,0-2,2.18v0a2.08,2.08,0,0,0,2,2.2,2.52,2.52,0,0,0,1.84-.82l1,1a3.58,3.58,0,0,1-2.87,1.25A3.54,3.54,0,0,1,104.08,10Z"/>
        <path class="cls-1" d="M111.26,10v0a3.72,3.72,0,0,1,7.44,0v0A3.72,3.72,0,0,1,111.26,10Zm5.83,0v0A2.13,2.13,0,0,0,115,7.79a2.09,2.09,0,0,0-2.1,2.18v0a2.13,2.13,0,0,0,2.12,2.2A2.09,2.09,0,0,0,117.1,10Z"/>
        <path class="cls-1" d="M119.88,6.49h1.54v5.6h3.49v1.4h-5v-7Z"/>
        <path class="cls-1" d="M125.86,6.49h1.54v5.6h3.49v1.4h-5v-7Z"/>
        <path class="cls-1" d="M131.85,6.49h5.28V7.86h-3.75V9.28h3.3v1.37h-3.3v1.47h3.8v1.37h-5.33v-7Z"/>
        <path class="cls-1" d="M138,10v0a3.59,3.59,0,0,1,3.67-3.62,3.84,3.84,0,0,1,2.75,1l-1,1.17a2.57,2.57,0,0,0-1.83-.71,2.1,2.1,0,0,0-2,2.18v0a2.1,2.1,0,0,0,2.12,2.22,2.46,2.46,0,0,0,1.45-.42v-1h-1.55V9.46h3v3a4.55,4.55,0,0,1-3,1.11A3.5,3.5,0,0,1,138,10Z"/>
        <path class="cls-1" d="M146,6.49h5.28V7.86h-3.75V9.28h3.3v1.37h-3.3v1.47h3.8v1.37H146v-7Z"/>
        <path class="cls-1" d="M155,10v0a3.72,3.72,0,0,1,7.44,0v0A3.72,3.72,0,0,1,155,10Zm5.83,0v0a2.13,2.13,0,0,0-2.12-2.2,2.09,2.09,0,0,0-2.1,2.18v0a2.13,2.13,0,0,0,2.12,2.2A2.09,2.09,0,0,0,160.81,10Z"/>
        <path class="cls-1" d="M163.59,6.49h5.33v1.4h-3.79V9.38h3.34v1.4h-3.34v2.71h-1.54v-7Z"/>
        <path class="cls-1" d="M106.79,16.44h1.42l3,7.05H109.6L109,21.92h-3l-0.64,1.57h-1.57Zm1.62,4.12-0.93-2.27-0.93,2.27h1.86Z"/>
        <path class="cls-1" d="M112.09,16.49h3.2a2.79,2.79,0,0,1,2,.71,2.19,2.19,0,0,1,.6,1.6v0a2.18,2.18,0,0,1-1.5,2.17l1.71,2.5h-1.8l-1.5-2.24h-1.21v2.24h-1.54v-7Zm3.1,3.4a1,1,0,0,0,1.18-1v0a1,1,0,0,0-1.21-1h-1.53v2h1.56Z"/>
        <path class="cls-1" d="M120.75,17.91h-2.13V16.49h5.8v1.42h-2.13v5.58h-1.54V17.91Z"/>
        <path class="cls-1" d="M124.92,22.47l0.91-1.09a3.2,3.2,0,0,0,2.09.85c0.63,0,1-.25,1-0.66v0c0-.39-0.24-0.59-1.41-0.89-1.41-.36-2.32-0.75-2.32-2.14v0a2.19,2.19,0,0,1,2.45-2.11,4.05,4.05,0,0,1,2.6.89l-0.8,1.16a3.29,3.29,0,0,0-1.82-.69,0.74,0.74,0,0,0-.9.61v0c0,0.46.3,0.61,1.51,0.92,1.42,0.37,2.22.88,2.22,2.1v0c0,1.39-1.06,2.17-2.57,2.17A4.46,4.46,0,0,1,124.92,22.47Z"/>
        <path class="cls-1" d="M138.3,22.81a3.14,3.14,0,0,1-2,.78,2.1,2.1,0,0,1-2.35-2v0a2,2,0,0,1,1.36-1.92,2.34,2.34,0,0,1-.49-1.4v0a1.92,1.92,0,0,1,2.12-1.84,1.81,1.81,0,0,1,2,1.76v0A1.94,1.94,0,0,1,137.39,20l0.93,0.93c0.23-.36.46-0.77,0.68-1.2l1.13,0.62a12.81,12.81,0,0,1-.92,1.48l1,1-1.13.79Zm-0.86-.88-1.34-1.36a1,1,0,0,0-.65.92v0a0.87,0.87,0,0,0,1,.82A1.66,1.66,0,0,0,137.44,21.93Zm0.08-3.69v0a0.62,0.62,0,0,0-.66-0.65,0.66,0.66,0,0,0-.68.71v0a1.25,1.25,0,0,0,.41.87A1.08,1.08,0,0,0,137.52,18.24Z"/>
        <path class="cls-1" d="M143.48,22.47l0.91-1.09a3.21,3.21,0,0,0,2.09.85c0.63,0,1-.25,1-0.66v0c0-.39-0.24-0.59-1.41-0.89-1.41-.36-2.32-0.75-2.32-2.14v0a2.19,2.19,0,0,1,2.45-2.11,4.06,4.06,0,0,1,2.6.89L148,18.44a3.29,3.29,0,0,0-1.82-.69,0.74,0.74,0,0,0-.9.61v0c0,0.46.3,0.61,1.51,0.92,1.42,0.37,2.22.88,2.22,2.1v0c0,1.39-1.06,2.17-2.57,2.17A4.46,4.46,0,0,1,143.48,22.47Z"/>
        <path class="cls-1" d="M149.85,20v0a3.56,3.56,0,0,1,3.65-3.62,3.62,3.62,0,0,1,2.76,1.08l-1,1.13a2.59,2.59,0,0,0-1.79-.79,2.07,2.07,0,0,0-2,2.18v0a2.08,2.08,0,0,0,2,2.2,2.53,2.53,0,0,0,1.84-.82l1,1a3.58,3.58,0,0,1-2.87,1.25A3.53,3.53,0,0,1,149.85,20Z"/>
        <path class="cls-1" d="M157.41,16.49h1.54v7h-1.54v-7Z"/>
        <path class="cls-1" d="M160.5,16.49h5.28v1.37H162v1.42h3.3v1.37H162v1.47h3.8v1.37H160.5v-7Z"/>
        <path class="cls-1" d="M167,16.49h1.42l3.28,4.31V16.49h1.52v7h-1.31L168.52,19v4.45H167v-7Z"/>
        <path class="cls-1" d="M174.39,20v0A3.56,3.56,0,0,1,178,16.37a3.62,3.62,0,0,1,2.76,1.08l-1,1.13a2.59,2.59,0,0,0-1.79-.79A2.07,2.07,0,0,0,176,20v0a2.08,2.08,0,0,0,2,2.2,2.53,2.53,0,0,0,1.84-.82l1,1A3.58,3.58,0,0,1,178,23.61,3.53,3.53,0,0,1,174.39,20Z"/>
        <path class="cls-1" d="M181.87,16.49h5.28v1.37h-3.75v1.42h3.3v1.37h-3.3v1.47h3.8v1.37h-5.33v-7Z"/>
      </g>
      <rect class="cls-1" x="95.87" width="0.65" height="30"/>
    </g>
  </g>
</svg>
