<svg id="Layer_1" data-name="Layer 1" xmlns="http://www.w3.org/2000/svg" width="61.52" height="22" viewBox="0 0 61.52 22"><defs><style>.cls-1{fill:#fff;}</style></defs><title>cas_small_short</title><path class="cls-1" d="M0,11.06V11A10.81,10.81,0,0,1,11.09,0a11,11,0,0,1,8.39,3.28l-3,3.43a7.85,7.85,0,0,0-5.44-2.4c-3.59,0-6.17,3-6.17,6.62V11c0,3.65,2.52,6.69,6.17,6.69,2.43,0,3.92-1,5.59-2.49l3,3A10.88,10.88,0,0,1,10.91,22,10.74,10.74,0,0,1,0,11.06Z"/><path class="cls-1" d="M30,0.21h4.31l9.12,21.42H38.58l-1.94-4.77h-9L25.7,21.63H20.93ZM35,12.73l-2.83-6.9-2.83,6.9H35Z"/><path class="cls-1" d="M44.69,18.54l2.76-3.31a9.76,9.76,0,0,0,6.35,2.58c1.91,0,3.07-.76,3.07-2V15.74c0-1.19-.73-1.79-4.29-2.7-4.28-1.09-7-2.28-7-6.5V6.47c0-3.86,3.1-6.41,7.45-6.41a12.31,12.31,0,0,1,7.9,2.7L58.45,6.29a10,10,0,0,0-5.53-2.1c-1.79,0-2.73.82-2.73,1.85V6.11c0,1.4.91,1.85,4.59,2.8,4.31,1.12,6.75,2.67,6.75,6.38v0.06c0,4.22-3.22,6.59-7.81,6.59A13.54,13.54,0,0,1,44.69,18.54Z"/></svg>